<svg xmlns="http://www.w3.org/2000/svg" xmlns:xlink="http://www.w3.org/1999/xlink" width="128" zoomAndPan="magnify" viewBox="0 0 96 95.999999" height="128" preserveAspectRatio="xMidYMid meet" version="1.0"><defs><clipPath id="dfd87b0f83"><path d="M 2.890625 15.851562 L 92.890625 15.851562 L 92.890625 80.351562 L 2.890625 80.351562 Z M 2.890625 15.851562 " clip-rule="nonzero"/></clipPath></defs><g clip-path="url(#dfd87b0f83)"><path fill="#8394e3" d="M 59.125 51.121094 L 90.953125 78.414062 C 89.796875 79.496094 88.238281 80.160156 86.523438 80.160156 L 9.441406 80.160156 C 7.71875 80.160156 6.160156 79.488281 5 78.414062 L 36.84375 51.121094 L 47.984375 60.867188 Z M 90.964844 17.597656 C 89.8125 16.519531 88.253906 15.851562 86.527344 15.851562 L 9.441406 15.851562 C 7.726562 15.851562 6.167969 16.519531 5.015625 17.609375 L 47.984375 54.4375 Z M 2.964844 21.496094 L 2.964844 74.921875 L 34.046875 48.515625 Z M 61.921875 48.515625 L 93.003906 74.921875 L 93.003906 21.476562 Z M 61.921875 48.515625 " fill-opacity="1" fill-rule="nonzero"/></g></svg>