<svg xmlns="http://www.w3.org/2000/svg" xmlns:xlink="http://www.w3.org/1999/xlink" width="128" zoomAndPan="magnify" viewBox="0 0 96 95.999999" height="128" preserveAspectRatio="xMidYMid meet" version="1.0"><defs><clipPath id="2f35481443"><path d="M 3.488281 15 L 81 15 L 81 92.738281 L 3.488281 92.738281 Z M 3.488281 15 " clip-rule="nonzero"/></clipPath><clipPath id="56a4a7bda8"><path d="M 35 3.488281 L 92.738281 3.488281 L 92.738281 61 L 35 61 Z M 35 3.488281 " clip-rule="nonzero"/></clipPath></defs><g clip-path="url(#2f35481443)"><path fill="#8394e3" d="M 76.105469 45.445312 C 73.847656 45.445312 72.011719 47.285156 72.011719 49.542969 L 72.011719 84.320312 L 11.667969 84.320312 L 11.667969 23.972656 L 46.445312 23.972656 C 48.703125 23.972656 50.539062 22.136719 50.539062 19.878906 C 50.539062 17.621094 48.703125 15.785156 46.445312 15.785156 L 7.582031 15.785156 C 5.324219 15.785156 3.488281 17.621094 3.488281 19.878906 L 3.488281 88.402344 C 3.488281 90.660156 5.324219 92.5 7.582031 92.5 L 76.105469 92.5 C 78.363281 92.5 80.203125 90.660156 80.203125 88.402344 L 80.203125 49.542969 C 80.203125 47.285156 78.363281 45.445312 76.105469 45.445312 Z M 76.105469 45.445312 " fill-opacity="1" fill-rule="nonzero"/></g><g clip-path="url(#56a4a7bda8)"><path fill="#8394e3" d="M 88.398438 3.492188 L 63.722656 3.492188 C 61.464844 3.492188 59.628906 5.328125 59.628906 7.585938 C 59.628906 9.84375 61.453125 11.679688 63.722656 11.679688 L 78.523438 11.679688 L 36.371094 53.824219 C 34.769531 55.425781 34.769531 58.011719 36.371094 59.605469 C 37.167969 60.398438 38.21875 60.804688 39.269531 60.804688 C 40.316406 60.804688 41.367188 60.398438 42.164062 59.605469 L 84.316406 17.453125 L 84.316406 32.265625 C 84.316406 34.523438 86.140625 36.359375 88.410156 36.359375 C 90.667969 36.359375 92.503906 34.523438 92.503906 32.265625 L 92.503906 7.585938 C 92.492188 5.328125 90.65625 3.492188 88.398438 3.492188 Z M 88.398438 3.492188 " fill-opacity="1" fill-rule="nonzero"/></g></svg>