<svg xmlns="http://www.w3.org/2000/svg" xmlns:xlink="http://www.w3.org/1999/xlink" width="128" zoomAndPan="magnify" viewBox="0 0 96 95.999999" height="128" preserveAspectRatio="xMidYMid meet" version="1.0"><path fill="#8394e3" d="M 87 2.25 L 9 2.25 C 8.5625 2.246094 8.128906 2.285156 7.695312 2.363281 C 7.265625 2.445312 6.847656 2.566406 6.441406 2.730469 C 6.035156 2.894531 5.648438 3.097656 5.28125 3.335938 C 4.914062 3.574219 4.574219 3.847656 4.261719 4.152344 C 3.945312 4.460938 3.667969 4.792969 3.417969 5.15625 C 3.171875 5.515625 2.960938 5.898438 2.789062 6.300781 C 2.617188 6.707031 2.484375 7.121094 2.394531 7.550781 C 2.304688 7.976562 2.253906 8.410156 2.25 8.851562 L 2.25 87.164062 C 2.257812 87.601562 2.304688 88.035156 2.398438 88.464844 C 2.488281 88.890625 2.621094 89.304688 2.792969 89.707031 C 2.964844 90.109375 3.175781 90.492188 3.425781 90.851562 C 3.671875 91.210938 3.953125 91.546875 4.265625 91.851562 C 4.578125 92.15625 4.917969 92.429688 5.285156 92.667969 C 5.652344 92.90625 6.039062 93.105469 6.445312 93.269531 C 6.851562 93.433594 7.269531 93.554688 7.699219 93.636719 C 8.128906 93.714844 8.5625 93.753906 9 93.75 L 87 93.75 C 87.4375 93.753906 87.871094 93.714844 88.304688 93.632812 C 88.734375 93.550781 89.152344 93.429688 89.558594 93.265625 C 89.964844 93.101562 90.351562 92.898438 90.71875 92.660156 C 91.085938 92.417969 91.425781 92.144531 91.738281 91.839844 C 92.050781 91.53125 92.332031 91.199219 92.578125 90.835938 C 92.828125 90.476562 93.035156 90.09375 93.210938 89.691406 C 93.382812 89.289062 93.515625 88.871094 93.605469 88.441406 C 93.695312 88.015625 93.742188 87.582031 93.75 87.140625 L 93.75 8.828125 C 93.742188 8.390625 93.691406 7.957031 93.601562 7.53125 C 93.507812 7.105469 93.375 6.691406 93.199219 6.289062 C 93.027344 5.886719 92.816406 5.507812 92.570312 5.148438 C 92.320312 4.789062 92.039062 4.457031 91.726562 4.152344 C 91.414062 3.84375 91.074219 3.574219 90.710938 3.335938 C 90.34375 3.097656 89.957031 2.894531 89.550781 2.734375 C 89.144531 2.570312 88.730469 2.449219 88.300781 2.367188 C 87.871094 2.285156 87.4375 2.246094 87 2.25 Z M 87 2.25 " fill-opacity="1" fill-rule="nonzero"/><path fill="#ffffff" d="M 15.796875 36.546875 L 29.378906 36.546875 L 29.378906 80.25 L 15.796875 80.25 Z M 22.589844 14.796875 C 23.105469 14.796875 23.621094 14.847656 24.125 14.949219 C 24.632812 15.050781 25.125 15.199219 25.605469 15.398438 C 26.082031 15.59375 26.535156 15.835938 26.964844 16.125 C 27.394531 16.414062 27.792969 16.738281 28.160156 17.105469 C 28.523438 17.46875 28.851562 17.867188 29.140625 18.296875 C 29.425781 18.730469 29.667969 19.183594 29.867188 19.660156 C 30.0625 20.136719 30.214844 20.632812 30.3125 21.136719 C 30.414062 21.644531 30.464844 22.15625 30.464844 22.675781 C 30.464844 23.191406 30.414062 23.703125 30.3125 24.210938 C 30.210938 24.71875 30.0625 25.210938 29.863281 25.6875 C 29.667969 26.167969 29.421875 26.621094 29.136719 27.050781 C 28.847656 27.480469 28.523438 27.878906 28.15625 28.242188 C 27.789062 28.609375 27.390625 28.933594 26.960938 29.222656 C 26.53125 29.507812 26.078125 29.753906 25.597656 29.949219 C 25.121094 30.148438 24.628906 30.296875 24.121094 30.398438 C 23.613281 30.496094 23.101562 30.546875 22.585938 30.546875 C 22.066406 30.546875 21.554688 30.496094 21.046875 30.394531 C 20.542969 30.292969 20.050781 30.144531 19.570312 29.945312 C 19.09375 29.746094 18.640625 29.503906 18.210938 29.21875 C 17.78125 28.929688 17.382812 28.601562 17.015625 28.238281 C 16.652344 27.871094 16.324219 27.472656 16.039062 27.042969 C 15.75 26.613281 15.507812 26.15625 15.3125 25.679688 C 15.113281 25.203125 14.964844 24.710938 14.863281 24.203125 C 14.765625 23.695312 14.714844 23.183594 14.714844 22.664062 C 14.714844 22.148438 14.765625 21.636719 14.867188 21.128906 C 14.96875 20.621094 15.117188 20.132812 15.316406 19.652344 C 15.515625 19.175781 15.757812 18.722656 16.042969 18.292969 C 16.332031 17.863281 16.660156 17.464844 17.023438 17.101562 C 17.390625 16.734375 17.789062 16.410156 18.21875 16.125 C 18.648438 15.835938 19.101562 15.59375 19.578125 15.394531 C 20.054688 15.199219 20.546875 15.050781 21.054688 14.949219 C 21.5625 14.847656 22.074219 14.796875 22.589844 14.796875 M 37.898438 36.546875 L 50.917969 36.546875 L 50.917969 42.546875 L 51.097656 42.546875 C 52.914062 39.113281 57.335938 35.488281 63.945312 35.488281 C 77.699219 35.460938 80.25 44.511719 80.25 56.25 L 80.25 80.25 L 66.667969 80.25 L 66.667969 58.988281 C 66.667969 53.925781 66.578125 47.40625 59.609375 47.40625 C 52.640625 47.40625 51.457031 52.925781 51.457031 58.65625 L 51.457031 80.25 L 37.898438 80.25 Z M 37.898438 36.546875 " fill-opacity="1" fill-rule="nonzero"/></svg>